<?xml version="1.0" encoding="UTF-8" standalone="no"?>
<svg
   xmlns:dc="http://purl.org/dc/elements/1.1/"
   xmlns:cc="http://creativecommons.org/ns#"
   xmlns:rdf="http://www.w3.org/1999/02/22-rdf-syntax-ns#"
   xmlns:svg="http://www.w3.org/2000/svg"
   xmlns="http://www.w3.org/2000/svg"
   xmlns:sodipodi="http://sodipodi.sourceforge.net/DTD/sodipodi-0.dtd"
   xmlns:inkscape="http://www.inkscape.org/namespaces/inkscape"
   inkscape:version="1.0beta1 (32d4812, 2019-09-19)"
   sodipodi:docname="brand.svg"
   viewBox="0 0 433.57187 76.153329"
   height="76.153328"
   width="433.57187"
   xml:space="preserve"
   id="svg1352"
   version="1.1">
  <metadata
     id="metadata1358">
    <rdf:RDF>
      <cc:Work
         rdf:about="">
        <dc:format>image/svg+xml</dc:format>
        <dc:type
           rdf:resource="http://purl.org/dc/dcmitype/StillImage" />
        <dc:title></dc:title>
      </cc:Work>
    </rdf:RDF>
  </metadata>
  <defs
     id="defs1356">
    <clipPath
       id="clipPath1368"
       clipPathUnits="userSpaceOnUse">
      <path
         inkscape:connector-curvature="0"
         id="path1366"
         d="M 0,108.208 H 360 V 0 H 0 Z" />
    </clipPath>
  </defs>
  <sodipodi:namedview
     inkscape:current-layer="g1360"
     inkscape:window-maximized="0"
     inkscape:window-y="25"
     inkscape:window-x="0"
     inkscape:cy="38.496931"
     inkscape:cx="79.633868"
     inkscape:zoom="1.1479167"
     showgrid="false"
     id="namedview1354"
     inkscape:window-height="633"
     inkscape:window-width="1709"
     inkscape:pageshadow="2"
     inkscape:pageopacity="0"
     guidetolerance="10"
     gridtolerance="10"
     objecttolerance="10"
     borderopacity="1"
     inkscape:document-rotation="0"
     bordercolor="#666666"
     pagecolor="#ffffff" />
  <g
     transform="matrix(1.3333333,0,0,-1.3333333,-23.16105,110.6356)"
     inkscape:label="Dymium Logo_White"
     inkscape:groupmode="layer"
     id="g1360">
    <g
       id="g1362">
      <g
         clip-path="url(#clipPath1368)"
         id="g1364">
        <g
           transform="translate(44.7583,33.5062)"
           id="g1370">
          <path
             inkscape:connector-curvature="0"
             id="path1372"
             style="fill:#ffffff;fill-opacity:1;fill-rule:nonzero;stroke:none"
             d="M 0,0 C 13.952,0 22.903,8.548 22.903,21.21 22.903,33.871 13.952,42.42 0,42.42 h -11.974 c -1.805,0 -3.269,-1.463 -3.269,-3.268 V 3.269 C -15.243,1.464 -13.779,0 -11.974,0 Z m -27.144,44.938 c -0.873,2.149 0.709,4.498 3.029,4.498 H 0.483 c 18.146,0 30.486,-11.452 30.486,-28.226 0,-16.775 -12.34,-28.227 -30.486,-28.227 h -24.396 c -2.372,0 -3.954,2.449 -2.98,4.612 l 3.297,2.759 c 0.19,0.421 0.289,0.878 0.289,1.342 v 38.058 c 0,0.422 -0.082,0.84 -0.24,1.23 z" />
        </g>
        <g
           transform="translate(181.1123,29.7513)"
           id="g1374">
          <path
             inkscape:connector-curvature="0"
             id="path1376"
             style="fill:#ffffff;fill-opacity:1;fill-rule:nonzero;stroke:none"
             d="m 0,0 -0.051,26.033 c -0.007,3.318 -4.38,4.517 -6.077,1.666 L -19.528,5.19 C -20.117,4.2 -21.184,3.594 -22.336,3.594 h -0.001 c -1.148,0 -2.213,0.602 -2.803,1.588 l -13.38,22.316 c -1.705,2.844 -6.071,1.636 -6.071,-1.681 V 0.007 c 0,-1.805 -1.464,-3.269 -3.269,-3.269 h -1.205 c -1.805,0 -3.268,1.464 -3.268,3.269 v 49.915 c 0,1.806 1.463,3.268 3.268,3.268 h 1.483 c 1.154,0 2.222,-0.607 2.811,-1.599 l 19.769,-33.31 c 1.271,-2.14 4.374,-2.132 5.631,0.018 L 0.107,51.573 c 0.587,1.002 1.661,1.617 2.822,1.617 h 1.474 c 1.804,0 3.267,-1.46 3.269,-3.263 L 7.744,0.012 C 7.747,-1.796 6.282,-3.262 4.476,-3.262 H 3.269 C 1.466,-3.262 0.004,-1.802 0,0" />
        </g>
        <g
           transform="translate(205.0225,82.9417)"
           id="g1378">
          <path
             inkscape:connector-curvature="0"
             id="path1380"
             style="fill:#ffffff;fill-opacity:1;fill-rule:nonzero;stroke:none"
             d="m 0,0 h 1.528 c 1.805,0 3.269,-1.463 3.269,-3.269 v -49.915 c 0,-1.804 -1.464,-3.268 -3.269,-3.268 H 0 c -1.806,0 -3.269,1.464 -3.269,3.268 V -3.269 C -3.269,-1.463 -1.806,0 0,0" />
        </g>
        <g
           transform="translate(334.8057,29.7513)"
           id="g1382">
          <path
             inkscape:connector-curvature="0"
             id="path1384"
             style="fill:#ffffff;fill-opacity:1;fill-rule:nonzero;stroke:none"
             d="m 0,0 -0.052,26.034 c -0.006,3.318 -4.38,4.516 -6.076,1.665 L -19.528,5.19 c -0.589,-0.99 -1.657,-1.596 -2.809,-1.596 -1.148,0 -2.213,0.602 -2.803,1.588 l -13.381,22.317 c -1.705,2.844 -6.071,1.635 -6.071,-1.681 V 0.007 c 0,-1.805 -1.464,-3.269 -3.268,-3.269 h -1.205 c -1.806,0 -3.269,1.464 -3.269,3.269 v 49.915 c 0,1.806 1.463,3.268 3.269,3.268 h 1.483 c 1.154,0 2.223,-0.607 2.811,-1.599 l 19.77,-33.31 c 1.271,-2.14 4.373,-2.132 5.631,0.018 L 0.108,51.573 c 0.587,1.002 1.661,1.617 2.822,1.617 h 1.473 c 1.804,0 3.267,-1.46 3.269,-3.263 L 7.744,0.012 C 7.747,-1.796 6.282,-3.262 4.476,-3.262 H 3.269 C 1.466,-3.262 0.004,-1.803 0,0" />
        </g>
        <g
           transform="translate(246.126,25.8617)"
           id="g1386">
          <path
             inkscape:connector-curvature="0"
             id="path1388"
             style="fill:#ffffff;fill-opacity:1;fill-rule:nonzero;stroke:none"
             d="m 0,0 c -14.839,0 -23.89,8.612 -23.89,24.983 v 28.829 c 0,1.805 1.464,3.268 3.269,3.268 h 1.528 c 1.806,0 3.269,-1.463 3.269,-3.268 V 25.307 c 0,-12.5 5.661,-18.129 15.824,-18.129 10.162,0 15.824,5.663 15.824,18.163 v 28.506 c 0,1.804 1.463,3.268 3.269,3.268 h 1.528 c 1.805,0 3.269,-1.464 3.269,-3.268 V 25.018 C 23.89,8.646 14.839,0 0,0" />
        </g>
        <g
           transform="translate(95.2358,45.2503)"
           id="g1390">
          <path
             inkscape:connector-curvature="0"
             id="path1392"
             style="fill:#ffffff;fill-opacity:1;fill-rule:nonzero;stroke:none"
             d="m 0,0 c 0,0.601 -0.166,1.189 -0.478,1.701 l -18.913,31.021 c -1.327,2.177 0.241,4.969 2.791,4.969 h 0.969 c 1.142,0 2.201,-0.595 2.794,-1.572 L 1.486,12.525 c 0.575,-0.946 1.531,-1.464 2.502,-1.556 0.974,0.09 1.934,0.61 2.511,1.559 l 14.323,23.594 c 0.592,0.977 1.652,1.572 2.794,1.572 h 0.968 c 2.551,0 4.119,-2.792 2.791,-4.969 L 8.463,1.705 C 8.15,1.192 7.985,0.604 7.985,0.003 v -15.492 c 0,-1.805 -1.464,-3.269 -3.269,-3.269 H 3.27 c -1.806,0 -3.269,1.464 -3.269,3.269 v 15.334 z" />
        </g>
      </g>
    </g>
  </g>
</svg>
