<?xml version="1.0" encoding="UTF-8"?>
<svg id="Layer_2" data-name="Layer 2" xmlns="http://www.w3.org/2000/svg" viewBox="0 0 383.57 73.4">
  <defs>
    <style>
      .cls-1 {
        fill: #fff;
        stroke-width: 0px;
      }
    </style>
  </defs>
  <g id="art">
    <path class="cls-1" d="m1.18,71.46c-.78-.75-1.18-1.74-1.18-2.96V4.6c0-1.22.39-2.21,1.18-2.96.78-.75,1.82-1.12,3.12-1.12h19.93c11.52,0,20.43,3.12,26.73,9.35,6.3,6.24,9.46,15.11,9.46,26.63s-3.17,20.41-9.51,26.68c-6.34,6.27-15.23,9.41-26.68,9.41H4.29c-1.3,0-2.34-.37-3.12-1.12Zm22.54-6.03c18.67,0,28.01-9.64,28.01-28.93S42.39,7.67,23.72,7.67h-15.34v57.76h15.34ZM117.97.1c.95,0,1.8.38,2.56,1.12.75.75,1.12,1.67,1.12,2.76,0,1.02-.31,1.88-.92,2.56l-24.84,31.38v30.87c0,1.37-.39,2.42-1.18,3.17-.78.75-1.79,1.12-3.02,1.12s-2.23-.37-3.02-1.12c-.78-.75-1.18-1.81-1.18-3.17v-30.97L62.67,6.54c-.68-.75-1.02-1.6-1.02-2.56,0-1.09.39-2.01,1.18-2.76.78-.75,1.69-1.12,2.71-1.12,1.16,0,2.15.51,2.96,1.53l23.31,29.75L115.01,1.64c.82-1.02,1.8-1.53,2.96-1.53Zm80.4,1.07c.71.78,1.07,1.82,1.07,3.12v64.71c0,1.23-.34,2.22-1.02,2.97-.68.75-1.64,1.12-2.86,1.12s-2.15-.37-2.76-1.12c-.61-.75-.92-1.74-.92-2.97V16.77l-22.18,42.53c-.95,1.98-2.35,2.96-4.19,2.96s-3.17-.99-4.19-2.96l-22.29-42.02v51.73c0,1.23-.32,2.22-.97,2.97-.65.75-1.58,1.12-2.81,1.12s-2.18-.37-2.86-1.12c-.68-.75-1.02-1.74-1.02-2.97V4.29c0-1.29.37-2.33,1.12-3.12.75-.78,1.77-1.18,3.07-1.18,1.7,0,3.07.99,4.09,2.96l25.97,49.79L191.27,2.96c.55-1.09,1.14-1.86,1.79-2.3.65-.44,1.41-.67,2.3-.67,1.29,0,2.3.39,3.02,1.18Zm19.58,70.74c-.75-.78-1.12-1.82-1.12-3.12V4.29c0-1.29.37-2.33,1.12-3.12.75-.78,1.77-1.18,3.07-1.18s2.32.39,3.07,1.18c.75.78,1.12,1.82,1.12,3.12v64.51c0,1.3-.38,2.34-1.12,3.12-.75.78-1.77,1.17-3.07,1.17s-2.32-.39-3.07-1.17Zm31.79-5.88c-4.84-4.91-7.26-12.13-7.26-21.67V4.29c0-1.29.37-2.33,1.12-3.12.75-.78,1.77-1.18,3.07-1.18,1.22,0,2.21.39,2.96,1.18.75.78,1.12,1.82,1.12,3.12v40.79c0,7.02,1.72,12.3,5.16,15.85,3.44,3.55,8.5,5.32,15.18,5.32s11.72-1.77,15.13-5.32c3.41-3.54,5.11-8.83,5.11-15.85V4.29c0-1.29.39-2.33,1.18-3.12s1.79-1.18,3.02-1.18c1.29,0,2.32.39,3.07,1.18.75.78,1.12,1.82,1.12,3.12v40.07c0,9.47-2.44,16.68-7.31,21.62-4.87,4.94-11.98,7.41-21.32,7.41s-16.53-2.45-21.37-7.36ZM382.49,1.18c.71.78,1.07,1.82,1.07,3.12v64.71c0,1.23-.34,2.22-1.02,2.97-.68.75-1.64,1.12-2.86,1.12s-2.15-.37-2.76-1.12c-.61-.75-.92-1.74-.92-2.97V16.77l-22.18,42.53c-.95,1.98-2.35,2.96-4.19,2.96s-3.17-.99-4.19-2.96l-22.29-42.02v51.73c0,1.23-.32,2.22-.97,2.97-.65.75-1.58,1.12-2.81,1.12s-2.18-.37-2.86-1.12c-.68-.75-1.02-1.74-1.02-2.97V4.29c0-1.29.37-2.33,1.12-3.12.75-.78,1.77-1.18,3.07-1.18,1.7,0,3.07.99,4.09,2.96l25.97,49.79,25.66-49.79c.54-1.09,1.14-1.86,1.79-2.3.65-.44,1.41-.67,2.3-.67,1.29,0,2.3.39,3.02,1.18Z"/>
  </g>
</svg>