<?xml version="1.0" encoding="UTF-8"?>
<svg id="Layer_2" data-name="Layer 2" xmlns="http://www.w3.org/2000/svg" xmlns:xlink="http://www.w3.org/1999/xlink" viewBox="0 0 544.09 114.42">
  <defs>
    <style>
      .cls-1 {
        fill: url(#linear-gradient);
      }

      .cls-1, .cls-2, .cls-3, .cls-4, .cls-5, .cls-6 {
        stroke-width: 0px;
      }

      .cls-2 {
        fill: none;
      }

      .cls-3 {
        fill: #fff;
      }

      .cls-4 {
        fill: url(#linear-gradient-2);
      }

      .cls-7 {
        clip-path: url(#clippath);
      }

      .cls-5 {
        fill: url(#radial-gradient);
      }

      .cls-6 {
        fill: #043954;
      }
    </style>
    <radialGradient id="radial-gradient" cx="57.21" cy="57.44" fx="57.21" fy="57.44" r="50.78" gradientTransform="translate(0)" gradientUnits="userSpaceOnUse">
      <stop offset=".41" stop-color="#00527c"/>
      <stop offset="1" stop-color="#043954"/>
    </radialGradient>
    <clipPath id="clippath">
      <path id="Circle_10-2" data-name="Circle_10" class="cls-2" d="m108,57.44c0-28.05-22.74-50.78-50.78-50.78S6.43,29.39,6.43,57.44s22.74,50.78,50.78,50.78,50.78-22.74,50.78-50.78"/>
    </clipPath>
    <linearGradient id="linear-gradient" x1="57.21" y1="57.45" x2="57.21" y2="108.6" gradientUnits="userSpaceOnUse">
      <stop offset="0" stop-color="#daeff7"/>
      <stop offset=".36" stop-color="#6ebde6"/>
      <stop offset=".65" stop-color="#6ebde6"/>
      <stop offset="1" stop-color="#0883ba"/>
    </linearGradient>
    <linearGradient id="linear-gradient-2" x1="57.21" y1="57.45" x2="57.21" y2="6.28" gradientUnits="userSpaceOnUse">
      <stop offset="0" stop-color="#f7ede2"/>
      <stop offset=".35" stop-color="#fc8f24"/>
      <stop offset=".65" stop-color="#fc8f24"/>
      <stop offset="1" stop-color="#f63"/>
    </linearGradient>
  </defs>
  <g id="art">
    <g>
      <path class="cls-3" d="m161.7,91.26c-.78-.75-1.18-1.74-1.18-2.96V24.4c0-1.22.39-2.21,1.18-2.96.78-.75,1.82-1.12,3.12-1.12h19.93c11.52,0,20.43,3.12,26.73,9.35,6.3,6.24,9.46,15.11,9.46,26.63s-3.17,20.41-9.51,26.68c-6.34,6.27-15.23,9.41-26.68,9.41h-19.93c-1.3,0-2.34-.37-3.12-1.12Zm22.54-6.03c18.67,0,28.01-9.64,28.01-28.93s-9.34-28.83-28.01-28.83h-15.34v57.76h15.34Zm94.26-65.33c.95,0,1.8.38,2.56,1.12.75.75,1.12,1.67,1.12,2.76,0,1.02-.31,1.88-.92,2.56l-24.84,31.38v30.87c0,1.37-.39,2.42-1.18,3.17-.78.75-1.79,1.12-3.02,1.12s-2.23-.37-3.02-1.12c-.78-.75-1.18-1.81-1.18-3.17v-30.97l-24.84-31.28c-.68-.75-1.02-1.6-1.02-2.56,0-1.09.39-2.01,1.18-2.76.78-.75,1.69-1.12,2.71-1.12,1.16,0,2.15.51,2.96,1.53l23.31,29.75,23.21-29.75c.82-1.02,1.8-1.53,2.96-1.53Zm80.4,1.07c.71.78,1.07,1.82,1.07,3.12v64.71c0,1.23-.34,2.22-1.02,2.97-.68.75-1.64,1.12-2.86,1.12s-2.15-.37-2.76-1.12c-.61-.75-.92-1.74-.92-2.97v-52.24l-22.18,42.53c-.95,1.98-2.35,2.96-4.19,2.96s-3.17-.99-4.19-2.96l-22.29-42.02v51.73c0,1.23-.32,2.22-.97,2.97-.65.75-1.58,1.12-2.81,1.12s-2.18-.37-2.86-1.12c-.68-.75-1.02-1.74-1.02-2.97V24.1c0-1.29.37-2.33,1.12-3.12.75-.78,1.77-1.18,3.07-1.18,1.7,0,3.07.99,4.09,2.96l25.97,49.79,25.66-49.79c.55-1.09,1.14-1.86,1.79-2.3.65-.44,1.41-.67,2.3-.67,1.29,0,2.3.39,3.02,1.18Zm19.58,70.74c-.75-.78-1.12-1.82-1.12-3.12V24.1c0-1.29.37-2.33,1.12-3.12.75-.78,1.77-1.18,3.07-1.18s2.32.39,3.07,1.18c.75.78,1.12,1.82,1.12,3.12v64.51c0,1.3-.38,2.34-1.12,3.12-.75.78-1.77,1.17-3.07,1.17s-2.32-.39-3.07-1.17Zm31.79-5.88c-4.84-4.91-7.26-12.13-7.26-21.67V24.1c0-1.29.37-2.33,1.12-3.12.75-.78,1.77-1.18,3.07-1.18,1.22,0,2.21.39,2.96,1.18.75.78,1.12,1.82,1.12,3.12v40.79c0,7.02,1.72,12.3,5.16,15.85,3.44,3.55,8.5,5.32,15.18,5.32s11.72-1.77,15.13-5.32c3.41-3.54,5.11-8.83,5.11-15.85V24.1c0-1.29.39-2.33,1.18-3.12s1.79-1.18,3.02-1.18c1.29,0,2.32.39,3.07,1.18.75.78,1.12,1.82,1.12,3.12v40.07c0,9.47-2.44,16.68-7.31,21.62-4.87,4.94-11.98,7.41-21.32,7.41s-16.53-2.45-21.37-7.36Zm132.75-64.86c.71.78,1.07,1.82,1.07,3.12v64.71c0,1.23-.34,2.22-1.02,2.97-.68.75-1.64,1.12-2.86,1.12s-2.15-.37-2.76-1.12c-.61-.75-.92-1.74-.92-2.97v-52.24l-22.18,42.53c-.95,1.98-2.35,2.96-4.19,2.96s-3.17-.99-4.19-2.96l-22.29-42.02v51.73c0,1.23-.32,2.22-.97,2.97-.65.75-1.58,1.12-2.81,1.12s-2.18-.37-2.86-1.12c-.68-.75-1.02-1.74-1.02-2.97V24.1c0-1.29.37-2.33,1.12-3.12.75-.78,1.77-1.18,3.07-1.18,1.7,0,3.07.99,4.09,2.96l25.97,49.79,25.66-49.79c.54-1.09,1.14-1.86,1.79-2.3.65-.44,1.41-.67,2.3-.67,1.29,0,2.3.39,3.02,1.18Z"/>
      <g>
        <g>
          <path id="Circle_18" class="cls-6" d="m57.21,0C25.66,0,0,25.66,0,57.21s25.66,57.21,57.21,57.21,57.21-25.66,57.21-57.21S88.76,0,57.21,0h0Z"/>
          <circle id="Circle_18-2" data-name="Circle_18" class="cls-3" cx="57.21" cy="57.44" r="54.01"/>
          <path id="Circle_10" class="cls-5" d="m108,57.44c0-28.05-22.74-50.78-50.78-50.78S6.43,29.39,6.43,57.44s22.74,50.78,50.78,50.78,50.78-22.74,50.78-50.78"/>
          <g class="cls-7">
            <g>
              <path class="cls-1" d="m64.77,78.55c6.31,9.37,16.57,15.28,27.84,16.03-.66.6-1.33,1.17-1.99,1.74-11.9-1.23-22.5-8.14-28.47-18.53,3.85,10.01,10.67,18.59,19.54,24.65l-1.93.98c-9.25-6.56-16.16-15.88-19.79-26.61,1.77,10.54,5.21,20.7,10.23,30.14l-1.86.44c-4.86-9.66-8.33-19.95-10.26-30.58v31.78h-1.74v-31.78c-1.93,10.64-5.4,20.93-10.26,30.58l-1.86-.47c4.99-9.41,8.46-19.57,10.23-30.11-3.63,10.73-10.57,20.04-19.79,26.61l-1.93-.98c8.87-6.06,15.69-14.64,19.54-24.65-5.97,10.38-16.57,17.26-28.47,18.53-.69-.57-1.33-1.17-1.99-1.77,11.27-.73,21.53-6.66,27.84-16-9.59,9.53-25.09,11.84-37.15,5.71l-1.7-3c11.65,7.86,27.33,5.96,36.77-4.45-14.68,9.09-35.04-2.04-35.1-19.37h2.02c-.13,11.46,9.16,20.82,20.64,20.85,5.62,0,11.05-2.02,15.31-5.71.41-.47.66-1.07.76-1.74v-13.4s12.03,0,12.03,0v13.43c.05.63.34,1.23.75,1.7,4.23,3.69,9.69,5.71,15.31,5.71,11.49,0,20.74-9.39,20.64-20.85h2.02c-.09,17.33-20.43,28.46-35.1,19.37,9.44,10.42,25.09,12.31,36.77,4.48l-1.7,2.97c-12.06,6.12-27.55,3.82-37.15-5.71Z"/>
              <path class="cls-4" d="m64.77,36.33c6.31-9.37,16.57-15.28,27.84-16.03-.66-.6-1.33-1.17-1.99-1.74-11.9,1.23-22.5,8.14-28.47,18.53,3.85-10.01,10.67-18.59,19.54-24.65l-1.93-.98c-9.25,6.56-16.16,15.88-19.79,26.61,1.77-10.54,5.21-20.7,10.23-30.14l-1.86-.44c-4.86,9.66-8.33,19.95-10.26,30.58V6.28h-1.74v31.78c-1.93-10.64-5.4-20.93-10.26-30.58l-1.86.47c4.99,9.41,8.46,19.57,10.23,30.11-3.63-10.73-10.57-20.04-19.79-26.61l-1.93.98c8.87,6.06,15.69,14.64,19.54,24.65-5.97-10.38-16.57-17.26-28.47-18.53-.69.57-1.33,1.17-1.99,1.77,11.27.73,21.53,6.66,27.84,16-9.59-9.53-25.09-11.84-37.15-5.71l-1.7,3c11.65-7.86,27.33-5.96,36.77,4.45-14.68-9.09-35.04,2.05-35.1,19.38h2.02c-.13-11.45,9.16-20.83,20.64-20.86,5.62,0,11.05,2.02,15.31,5.71.41.47.66,1.07.76,1.74v13.42s12.03,0,12.03,0v-13.45c.05-.63.34-1.23.75-1.7,4.23-3.69,9.69-5.71,15.31-5.71,11.49,0,20.74,9.41,20.64,20.86h2.02c-.09-17.33-20.42-28.47-35.1-19.38,9.44-10.42,25.09-12.31,36.77-4.48l-1.7-2.97c-12.06-6.12-27.55-3.82-37.15,5.71Z"/>
            </g>
          </g>
        </g>
        <g>
          <path class="cls-3" d="m47.75,48.46v18.54s4.54,3.4,4.54,3.4c1.41,1.05.66,3.29-1.09,3.29h-10.58c-5.66,0-8.71-1.19-11.61-3.66-2.29-1.95-5.57-5.52-5.57-12.18,0-5.71,2.52-9.76,5.43-12.18,4-3.38,8.52-3.71,11.71-3.71h10.52c1.77,0,2.5,2.26,1.08,3.3l-4.41,3.22Zm-3.52-3.19h-3.81c-8.04,0-13.38,4.95-13.38,12.57,0,4.52,1.9,7.66,4.28,9.66,3.1,2.57,6.57,2.86,9.09,2.86h3.81s0-25.08,0-25.08Z"/>
          <path class="cls-3" d="m62.66,45.18c-1.43-1.04-.69-3.3,1.08-3.3h10.52c3.19,0,7.71.33,11.71,3.71,2.9,2.43,5.43,6.47,5.43,12.18,0,6.66-3.28,10.23-5.57,12.18-2.9,2.47-5.95,3.66-11.61,3.66h-10.58c-1.76,0-2.5-2.24-1.09-3.29l4.54-3.4v-18.54l-4.41-3.22Zm7.93,25.11h3.81c2.52,0,6-.28,9.09-2.86,2.38-2,4.28-5.14,4.28-9.66,0-7.62-5.33-12.57-13.38-12.57h-3.81v25.08Z"/>
        </g>
      </g>
    </g>
  </g>
</svg>