<?xml version="1.0" encoding="UTF-8" standalone="no"?>
<svg
   xmlns:dc="http://purl.org/dc/elements/1.1/"
   xmlns:cc="http://creativecommons.org/ns#"
   xmlns:rdf="http://www.w3.org/1999/02/22-rdf-syntax-ns#"
   xmlns:svg="http://www.w3.org/2000/svg"
   xmlns="http://www.w3.org/2000/svg"
   xmlns:sodipodi="http://sodipodi.sourceforge.net/DTD/sodipodi-0.dtd"
   xmlns:inkscape="http://www.inkscape.org/namespaces/inkscape"
   sodipodi:docname="logo.svg"
   inkscape:version="1.0beta1 (32d4812, 2019-09-19)"
   id="svg1859"
   version="1.1"
   viewBox="0 0 26.577606 26.568823"
   height="26.568823mm"
   width="26.577606mm">
  <defs
     id="defs1853">
    <clipPath
       clipPathUnits="userSpaceOnUse"
       id="clipPath26">
      <path
         d="m 138.523,180.303 h 81.833 v 45.605 h -81.833 z"
         id="path24"
         inkscape:connector-curvature="0" />
    </clipPath>
    <clipPath
       clipPathUnits="userSpaceOnUse"
       id="clipPath38">
      <path
         d="m 141.835,180.523 c 0,-0.074 0.001,-0.146 0.001,-0.22 v 0 h 75.321 c 0,0.074 0,0.146 0,0.22 v 0 c 0,20.799 -16.861,37.66 -37.66,37.66 v 0 c -20.8,0 -37.662,-16.861 -37.662,-37.66"
         id="path36"
         inkscape:connector-curvature="0" />
    </clipPath>
    <clipPath
       clipPathUnits="userSpaceOnUse"
       id="clipPath134">
      <path
         d="m 138.523,180.303 h 81.833 v 45.605 h -81.833 z"
         id="path132"
         inkscape:connector-curvature="0" />
    </clipPath>
    <clipPath
       clipPathUnits="userSpaceOnUse"
       id="clipPath144">
      <path
         d="m 138.541,139.9 h 81.833 v 40.412 h -81.833 z"
         id="path142"
         inkscape:connector-curvature="0" />
    </clipPath>
    <clipPath
       clipPathUnits="userSpaceOnUse"
       id="clipPath156">
      <path
         d="m 141.853,180.311 c 0.119,-20.698 16.935,-37.441 37.661,-37.441 v 0 c 20.724,0 37.54,16.743 37.659,37.441 v 0 z"
         id="path154"
         inkscape:connector-curvature="0" />
    </clipPath>
    <clipPath
       clipPathUnits="userSpaceOnUse"
       id="clipPath252">
      <path
         d="m 138.541,139.9 h 81.833 v 40.412 h -81.833 z"
         id="path250"
         inkscape:connector-curvature="0" />
    </clipPath>
    <clipPath
       clipPathUnits="userSpaceOnUse"
       id="clipPath774">
      <path
         d="M 0,360 H 360 V 0 H 0 Z"
         id="path772"
         inkscape:connector-curvature="0" />
    </clipPath>
  </defs>
  <sodipodi:namedview
     inkscape:window-maximized="0"
     inkscape:window-y="25"
     inkscape:window-x="0"
     inkscape:window-height="907"
     inkscape:window-width="1600"
     showgrid="false"
     inkscape:document-rotation="0"
     inkscape:current-layer="layer1"
     inkscape:document-units="mm"
     inkscape:cy="409.74956"
     inkscape:cx="-525.81392"
     inkscape:zoom="0.36159259"
     inkscape:pageshadow="2"
     inkscape:pageopacity="0.0"
     borderopacity="1.0"
     bordercolor="#666666"
     pagecolor="#ffffff"
     id="base" />
  <metadata
     id="metadata1856">
    <rdf:RDF>
      <cc:Work
         rdf:about="">
        <dc:format>image/svg+xml</dc:format>
        <dc:type
           rdf:resource="http://purl.org/dc/dcmitype/StillImage" />
        <dc:title></dc:title>
      </cc:Work>
    </rdf:RDF>
  </metadata>
  <g
     transform="translate(-317.06238,-66.090588)"
     id="layer1"
     inkscape:groupmode="layer"
     inkscape:label="Layer 1">
    <g
       transform="matrix(0.35277777,0,0,-0.35277777,267.02583,143.0607)"
       id="g20">
      <g
         id="g22"
         clip-path="url(#clipPath26)">
        <g
           id="g28"
           transform="translate(141.8359,180.5229)">
          <path
             d="M 0,0 C 0,20.799 16.861,37.66 37.661,37.66 58.46,37.66 75.321,20.799 75.321,0 75.321,-20.799 58.46,-37.661 37.661,-37.661 16.861,-37.661 0,-20.799 0,0"
             style="fill:#231f20;fill-opacity:1;fill-rule:nonzero;stroke:none"
             id="path30"
             inkscape:connector-curvature="0" />
        </g>
      </g>
    </g>
    <g
       transform="matrix(0.35277777,0,0,-0.35277777,267.02583,143.0607)"
       id="g32">
      <g
         id="g34"
         clip-path="url(#clipPath38)">
        <g
           id="g40"
           transform="translate(210.9443,180.3042)">
          <path
             d="m 0,0 c 0.056,-4.24 -1.534,-8.497 -4.769,-11.731 -6.36,-6.359 -16.671,-6.359 -23.032,0"
             style="fill:none;stroke:#1b75bc;stroke-width:1.166;stroke-linecap:butt;stroke-linejoin:miter;stroke-miterlimit:10;stroke-dasharray:none;stroke-opacity:1"
             id="path42"
             inkscape:connector-curvature="0" />
        </g>
        <g
           id="g44"
           transform="translate(183.1436,191.605)">
          <path
             d="m 0,0 c 6.36,6.36 16.672,6.36 23.032,0 3.125,-3.125 4.715,-7.205 4.769,-11.301"
             style="fill:none;stroke:#f47b20;stroke-width:1.166;stroke-linecap:butt;stroke-linejoin:miter;stroke-miterlimit:10;stroke-dasharray:none;stroke-opacity:1"
             id="path46"
             inkscape:connector-curvature="0" />
        </g>
        <g
           id="g48"
           transform="translate(215.4199,163.7832)">
          <path
             d="m 0,0 c -3.796,-3.262 -8.733,-5.232 -14.13,-5.232 -11.981,0 -21.695,9.712 -21.695,21.693"
             style="fill:none;stroke:#1b75bc;stroke-width:1.166;stroke-linecap:butt;stroke-linejoin:miter;stroke-miterlimit:10;stroke-dasharray:none;stroke-opacity:1"
             id="path50"
             inkscape:connector-curvature="0" />
        </g>
        <g
           id="g52"
           transform="translate(179.5952,180.2446)">
          <path
             d="m 0,0 c 0,11.981 9.713,21.694 21.695,21.694 5.968,0 11.374,-2.41 15.296,-6.311"
             style="fill:none;stroke:#f47b20;stroke-width:1.166;stroke-linecap:butt;stroke-linejoin:miter;stroke-miterlimit:10;stroke-dasharray:none;stroke-opacity:1"
             id="path54"
             inkscape:connector-curvature="0" />
        </g>
        <g
           id="g56"
           transform="translate(207.9277,151.6182)">
          <path
             d="M 0,0 C -15.673,0 -28.378,12.706 -28.378,28.379"
             style="fill:none;stroke:#1b75bc;stroke-width:1.166;stroke-linecap:butt;stroke-linejoin:miter;stroke-miterlimit:10;stroke-dasharray:none;stroke-opacity:1"
             id="path58"
             inkscape:connector-curvature="0" />
        </g>
        <g
           id="g60"
           transform="translate(179.5493,179.9971)">
          <path
             d="M 0,0 C 0,15.673 12.706,28.378 28.378,28.378"
             style="fill:none;stroke:#f47b20;stroke-width:1.166;stroke-linecap:butt;stroke-linejoin:miter;stroke-miterlimit:10;stroke-dasharray:none;stroke-opacity:1"
             id="path62"
             inkscape:connector-curvature="0" />
        </g>
        <g
           id="g64"
           transform="translate(198.8506,144.7051)">
          <path
             d="M 0,0 C -11.584,7.403 -19.265,20.377 -19.265,35.145"
             style="fill:none;stroke:#1b75bc;stroke-width:1.166;stroke-linecap:butt;stroke-linejoin:miter;stroke-miterlimit:10;stroke-dasharray:none;stroke-opacity:1"
             id="path66"
             inkscape:connector-curvature="0" />
        </g>
        <g
           id="g68"
           transform="translate(179.5854,179.8496)">
          <path
             d="M 0,0 C 0,15.119 8.05,28.357 20.098,35.662"
             style="fill:none;stroke:#f47b20;stroke-width:1.166;stroke-linecap:butt;stroke-linejoin:miter;stroke-miterlimit:10;stroke-dasharray:none;stroke-opacity:1"
             id="path70"
             inkscape:connector-curvature="0" />
        </g>
        <g
           id="g72"
           transform="translate(179.6104,179.9214)">
          <path
             d="M 0,0 C 0,14.64 3.874,28.375 10.652,40.237"
             style="fill:none;stroke:#f47b20;stroke-width:1.166;stroke-linecap:butt;stroke-linejoin:miter;stroke-miterlimit:10;stroke-dasharray:none;stroke-opacity:1"
             id="path74"
             inkscape:connector-curvature="0" />
        </g>
        <g
           id="g76"
           transform="translate(189.1621,141.6738)">
          <path
             d="M 0,0 C -6.096,11.397 -9.552,24.419 -9.552,38.248"
             style="fill:none;stroke:#1b75bc;stroke-width:1.166;stroke-linecap:butt;stroke-linejoin:miter;stroke-miterlimit:10;stroke-dasharray:none;stroke-opacity:1"
             id="path78"
             inkscape:connector-curvature="0" />
        </g>
        <g
           id="g80"
           transform="translate(148.1436,180.3022)">
          <path
             d="m 0,0 c -0.055,-4.239 1.535,-8.495 4.769,-11.729 6.36,-6.359 16.671,-6.359 23.031,0"
             style="fill:none;stroke:#1b75bc;stroke-width:1.166;stroke-linecap:butt;stroke-linejoin:miter;stroke-miterlimit:10;stroke-dasharray:none;stroke-opacity:1"
             id="path82"
             inkscape:connector-curvature="0" />
        </g>
        <g
           id="g84"
           transform="translate(175.9438,191.605)">
          <path
             d="m 0,0 c -6.36,6.36 -16.671,6.36 -23.032,0 -3.125,-3.126 -4.715,-7.206 -4.768,-11.303"
             style="fill:none;stroke:#f47b20;stroke-width:1.166;stroke-linecap:butt;stroke-linejoin:miter;stroke-miterlimit:10;stroke-dasharray:none;stroke-opacity:1"
             id="path86"
             inkscape:connector-curvature="0" />
        </g>
        <g
           id="g88"
           transform="translate(179.498,180.2446)">
          <path
             d="m 0,0 c 0,11.981 -9.713,21.694 -21.694,21.694 -5.745,0 -10.969,-2.233 -14.85,-5.879"
             style="fill:none;stroke:#f47b20;stroke-width:1.166;stroke-linecap:butt;stroke-linejoin:miter;stroke-miterlimit:10;stroke-dasharray:none;stroke-opacity:1"
             id="path90"
             inkscape:connector-curvature="0" />
        </g>
        <g
           id="g92"
           transform="translate(143.7109,163.751)">
          <path
             d="m 0,0 c 3.791,-3.242 8.713,-5.2 14.093,-5.2 11.981,0 21.694,9.713 21.694,21.694"
             style="fill:none;stroke:#1b75bc;stroke-width:1.166;stroke-linecap:butt;stroke-linejoin:miter;stroke-miterlimit:10;stroke-dasharray:none;stroke-opacity:1"
             id="path94"
             inkscape:connector-curvature="0" />
        </g>
        <g
           id="g96"
           transform="translate(151.1597,151.6182)">
          <path
             d="M 0,0 C 15.673,0 28.379,12.706 28.379,28.379"
             style="fill:none;stroke:#1b75bc;stroke-width:1.166;stroke-linecap:butt;stroke-linejoin:miter;stroke-miterlimit:10;stroke-dasharray:none;stroke-opacity:1"
             id="path98"
             inkscape:connector-curvature="0" />
        </g>
        <g
           id="g100"
           transform="translate(179.5386,179.9971)">
          <path
             d="M 0,0 C 0,15.673 -12.706,28.378 -28.379,28.378"
             style="fill:none;stroke:#f47b20;stroke-width:1.166;stroke-linecap:butt;stroke-linejoin:miter;stroke-miterlimit:10;stroke-dasharray:none;stroke-opacity:1"
             id="path102"
             inkscape:connector-curvature="0" />
        </g>
        <g
           id="g104"
           transform="translate(160.2266,144.6992)">
          <path
             d="M 0,0 C 11.59,7.401 19.276,20.378 19.276,35.15"
             style="fill:none;stroke:#1b75bc;stroke-width:1.166;stroke-linecap:butt;stroke-linejoin:miter;stroke-miterlimit:10;stroke-dasharray:none;stroke-opacity:1"
             id="path106"
             inkscape:connector-curvature="0" />
        </g>
        <g
           id="g108"
           transform="translate(179.5024,179.8496)">
          <path
             d="M 0,0 C 0,15.292 -8.235,28.659 -20.513,35.911"
             style="fill:none;stroke:#f47b20;stroke-width:1.166;stroke-linecap:butt;stroke-linejoin:miter;stroke-miterlimit:10;stroke-dasharray:none;stroke-opacity:1"
             id="path110"
             inkscape:connector-curvature="0" />
        </g>
        <g
           id="g112"
           transform="translate(179.4775,179.9214)">
          <path
             d="M 0,0 C 0,14.497 -3.799,28.107 -10.455,39.889"
             style="fill:none;stroke:#f47b20;stroke-width:1.166;stroke-linecap:butt;stroke-linejoin:miter;stroke-miterlimit:10;stroke-dasharray:none;stroke-opacity:1"
             id="path114"
             inkscape:connector-curvature="0" />
        </g>
        <g
           id="g116"
           transform="translate(169.9687,141.7549)">
          <path
             d="M 0,0 C 6.069,11.378 9.509,24.37 9.509,38.167"
             style="fill:none;stroke:#1b75bc;stroke-width:1.166;stroke-linecap:butt;stroke-linejoin:miter;stroke-miterlimit:10;stroke-dasharray:none;stroke-opacity:1"
             id="path118"
             inkscape:connector-curvature="0" />
        </g>
        <g
           id="g120"
           transform="translate(179.5288,180.1343)">
          <path
             d="M 0,0 V -39.503"
             style="fill:none;stroke:#1b75bc;stroke-width:1.166;stroke-linecap:butt;stroke-linejoin:miter;stroke-miterlimit:10;stroke-dasharray:none;stroke-opacity:1"
             id="path122"
             inkscape:connector-curvature="0" />
        </g>
        <g
           id="g124"
           transform="translate(179.5288,221.6636)">
          <path
             d="M 0,0 V -41.529"
             style="fill:none;stroke:#f47b20;stroke-width:1.166;stroke-linecap:butt;stroke-linejoin:miter;stroke-miterlimit:10;stroke-dasharray:none;stroke-opacity:1"
             id="path126"
             inkscape:connector-curvature="0" />
        </g>
      </g>
    </g>
    <g
       transform="matrix(0.35277777,0,0,-0.35277777,267.02583,143.0607)"
       id="g128">
      <g
         id="g130"
         clip-path="url(#clipPath134)">
        <path
           d="m 183.229,167.694 h -7.379 v 25.416 h 7.379 z"
           style="fill:#f47b20;fill-opacity:1;fill-rule:nonzero;stroke:none"
           id="path136"
           inkscape:connector-curvature="0" />
      </g>
    </g>
    <g
       transform="matrix(0.35277777,0,0,-0.35277777,267.02583,143.0607)"
       id="g138">
      <g
         id="g140"
         clip-path="url(#clipPath144)">
        <g
           id="g146"
           transform="translate(141.853,180.5308)">
          <path
             d="m 0,0 c 0,20.799 16.861,37.66 37.661,37.66 20.798,0 37.66,-16.861 37.66,-37.66 0,-20.799 -16.862,-37.661 -37.66,-37.661 C 16.861,-37.661 0,-20.799 0,0"
             style="fill:#231f20;fill-opacity:1;fill-rule:nonzero;stroke:none"
             id="path148"
             inkscape:connector-curvature="0" />
        </g>
      </g>
    </g>
    <g
       transform="matrix(0.35277777,0,0,-0.35277777,267.02583,143.0607)"
       id="g150">
      <g
         id="g152"
         clip-path="url(#clipPath156)">
        <g
           id="g158"
           transform="translate(210.9609,180.3115)">
          <path
             d="m 0,0 c 0.056,-4.239 -1.534,-8.496 -4.769,-11.73 -6.359,-6.361 -16.67,-6.361 -23.031,0"
             style="fill:none;stroke:#0092c8;stroke-width:1.166;stroke-linecap:butt;stroke-linejoin:miter;stroke-miterlimit:10;stroke-dasharray:none;stroke-opacity:1"
             id="path160"
             inkscape:connector-curvature="0" />
        </g>
        <g
           id="g162"
           transform="translate(183.1611,191.6128)">
          <path
             d="m 0,0 c 6.36,6.36 16.672,6.36 23.031,0 3.126,-3.125 4.715,-7.205 4.769,-11.301"
             style="fill:none;stroke:#e78724;stroke-width:1.166;stroke-linecap:butt;stroke-linejoin:miter;stroke-miterlimit:10;stroke-dasharray:none;stroke-opacity:1"
             id="path164"
             inkscape:connector-curvature="0" />
        </g>
        <g
           id="g166"
           transform="translate(215.4375,163.791)">
          <path
             d="m 0,0 c -3.796,-3.262 -8.733,-5.232 -14.131,-5.232 -11.981,0 -21.694,9.712 -21.694,21.693"
             style="fill:none;stroke:#0092c8;stroke-width:1.166;stroke-linecap:butt;stroke-linejoin:miter;stroke-miterlimit:10;stroke-dasharray:none;stroke-opacity:1"
             id="path168"
             inkscape:connector-curvature="0" />
        </g>
        <g
           id="g170"
           transform="translate(179.6128,180.2524)">
          <path
             d="m 0,0 c 0,11.981 9.712,21.694 21.694,21.694 5.969,0 11.374,-2.41 15.297,-6.311"
             style="fill:none;stroke:#e78724;stroke-width:1.166;stroke-linecap:butt;stroke-linejoin:miter;stroke-miterlimit:10;stroke-dasharray:none;stroke-opacity:1"
             id="path172"
             inkscape:connector-curvature="0" />
        </g>
        <g
           id="g174"
           transform="translate(207.9453,151.626)">
          <path
             d="M 0,0 C -15.673,0 -28.379,12.706 -28.379,28.379"
             style="fill:none;stroke:#0092c8;stroke-width:1.166;stroke-linecap:butt;stroke-linejoin:miter;stroke-miterlimit:10;stroke-dasharray:none;stroke-opacity:1"
             id="path176"
             inkscape:connector-curvature="0" />
        </g>
        <g
           id="g178"
           transform="translate(179.5664,180.0049)">
          <path
             d="M 0,0 C 0,15.673 12.706,28.378 28.379,28.378"
             style="fill:none;stroke:#e78724;stroke-width:1.166;stroke-linecap:butt;stroke-linejoin:miter;stroke-miterlimit:10;stroke-dasharray:none;stroke-opacity:1"
             id="path180"
             inkscape:connector-curvature="0" />
        </g>
        <g
           id="g182"
           transform="translate(198.8682,144.7129)">
          <path
             d="M 0,0 C -11.585,7.403 -19.266,20.377 -19.266,35.144"
             style="fill:none;stroke:#0092c8;stroke-width:1.166;stroke-linecap:butt;stroke-linejoin:miter;stroke-miterlimit:10;stroke-dasharray:none;stroke-opacity:1"
             id="path184"
             inkscape:connector-curvature="0" />
        </g>
        <g
           id="g186"
           transform="translate(179.6025,179.8569)">
          <path
             d="M 0,0 C 0,15.119 8.05,28.357 20.099,35.663"
             style="fill:none;stroke:#e78724;stroke-width:1.166;stroke-linecap:butt;stroke-linejoin:miter;stroke-miterlimit:10;stroke-dasharray:none;stroke-opacity:1"
             id="path188"
             inkscape:connector-curvature="0" />
        </g>
        <g
           id="g190"
           transform="translate(179.6274,179.9292)">
          <path
             d="M 0,0 C 0,14.64 3.874,28.375 10.652,40.237"
             style="fill:none;stroke:#e78724;stroke-width:1.166;stroke-linecap:butt;stroke-linejoin:miter;stroke-miterlimit:10;stroke-dasharray:none;stroke-opacity:1"
             id="path192"
             inkscape:connector-curvature="0" />
        </g>
        <g
           id="g194"
           transform="translate(189.1797,141.6816)">
          <path
             d="M 0,0 C -6.096,11.397 -9.552,24.419 -9.552,38.248"
             style="fill:none;stroke:#0092c8;stroke-width:1.166;stroke-linecap:butt;stroke-linejoin:miter;stroke-miterlimit:10;stroke-dasharray:none;stroke-opacity:1"
             id="path196"
             inkscape:connector-curvature="0" />
        </g>
        <g
           id="g198"
           transform="translate(148.1606,180.3101)">
          <path
             d="m 0,0 c -0.055,-4.239 1.535,-8.495 4.769,-11.729 6.36,-6.36 16.671,-6.36 23.031,0"
             style="fill:none;stroke:#0092c8;stroke-width:1.166;stroke-linecap:butt;stroke-linejoin:miter;stroke-miterlimit:10;stroke-dasharray:none;stroke-opacity:1"
             id="path200"
             inkscape:connector-curvature="0" />
        </g>
        <g
           id="g202"
           transform="translate(175.9609,191.6128)">
          <path
             d="m 0,0 c -6.36,6.36 -16.671,6.36 -23.032,0 -3.125,-3.126 -4.715,-7.206 -4.768,-11.303"
             style="fill:none;stroke:#e78724;stroke-width:1.081;stroke-linecap:butt;stroke-linejoin:miter;stroke-miterlimit:10;stroke-dasharray:none;stroke-opacity:1"
             id="path204"
             inkscape:connector-curvature="0" />
        </g>
        <g
           id="g206"
           transform="translate(179.5151,180.2524)">
          <path
             d="m 0,0 c 0,11.981 -9.713,21.694 -21.694,21.694 -5.745,0 -10.969,-2.233 -14.85,-5.879"
             style="fill:none;stroke:#e78724;stroke-width:1.166;stroke-linecap:butt;stroke-linejoin:miter;stroke-miterlimit:10;stroke-dasharray:none;stroke-opacity:1"
             id="path208"
             inkscape:connector-curvature="0" />
        </g>
        <g
           id="g210"
           transform="translate(143.728,163.7588)">
          <path
             d="m 0,0 c 3.791,-3.242 8.713,-5.2 14.093,-5.2 11.981,0 21.694,9.713 21.694,21.694"
             style="fill:none;stroke:#0092c8;stroke-width:1.166;stroke-linecap:butt;stroke-linejoin:miter;stroke-miterlimit:10;stroke-dasharray:none;stroke-opacity:1"
             id="path212"
             inkscape:connector-curvature="0" />
        </g>
        <g
           id="g214"
           transform="translate(151.1768,151.626)">
          <path
             d="M 0,0 C 15.673,0 28.379,12.706 28.379,28.379"
             style="fill:none;stroke:#0092c8;stroke-width:1.166;stroke-linecap:butt;stroke-linejoin:miter;stroke-miterlimit:10;stroke-dasharray:none;stroke-opacity:1"
             id="path216"
             inkscape:connector-curvature="0" />
        </g>
        <g
           id="g218"
           transform="translate(179.5557,180.0049)">
          <path
             d="M 0,0 C 0,15.673 -12.706,28.378 -28.379,28.378"
             style="fill:none;stroke:#e78724;stroke-width:1.166;stroke-linecap:butt;stroke-linejoin:miter;stroke-miterlimit:10;stroke-dasharray:none;stroke-opacity:1"
             id="path220"
             inkscape:connector-curvature="0" />
        </g>
        <g
           id="g222"
           transform="translate(160.2437,144.707)">
          <path
             d="M 0,0 C 11.59,7.401 19.276,20.378 19.276,35.15"
             style="fill:none;stroke:#0092c8;stroke-width:1.166;stroke-linecap:butt;stroke-linejoin:miter;stroke-miterlimit:10;stroke-dasharray:none;stroke-opacity:1"
             id="path224"
             inkscape:connector-curvature="0" />
        </g>
        <g
           id="g226"
           transform="translate(179.5195,179.8569)">
          <path
             d="M 0,0 C 0,15.292 -8.235,28.66 -20.513,35.911"
             style="fill:none;stroke:#e78724;stroke-width:1.166;stroke-linecap:butt;stroke-linejoin:miter;stroke-miterlimit:10;stroke-dasharray:none;stroke-opacity:1"
             id="path228"
             inkscape:connector-curvature="0" />
        </g>
        <g
           id="g230"
           transform="translate(179.4946,179.9292)">
          <path
             d="M 0,0 C 0,14.497 -3.799,28.107 -10.455,39.889"
             style="fill:none;stroke:#e78724;stroke-width:1.166;stroke-linecap:butt;stroke-linejoin:miter;stroke-miterlimit:10;stroke-dasharray:none;stroke-opacity:1"
             id="path232"
             inkscape:connector-curvature="0" />
        </g>
        <g
           id="g234"
           transform="translate(169.9858,141.7627)">
          <path
             d="M 0,0 C 6.069,11.378 9.509,24.37 9.509,38.167"
             style="fill:none;stroke:#0092c8;stroke-width:1.166;stroke-linecap:butt;stroke-linejoin:miter;stroke-miterlimit:10;stroke-dasharray:none;stroke-opacity:1"
             id="path236"
             inkscape:connector-curvature="0" />
        </g>
        <g
           id="g238"
           transform="translate(179.5459,180.1421)">
          <path
             d="M 0,0 V -39.503"
             style="fill:none;stroke:#0092c8;stroke-width:1.166;stroke-linecap:butt;stroke-linejoin:miter;stroke-miterlimit:10;stroke-dasharray:none;stroke-opacity:1"
             id="path240"
             inkscape:connector-curvature="0" />
        </g>
        <g
           id="g242"
           transform="translate(179.5459,221.6714)">
          <path
             d="M 0,0 V -41.529"
             style="fill:none;stroke:#e78724;stroke-width:1.166;stroke-linecap:butt;stroke-linejoin:miter;stroke-miterlimit:10;stroke-dasharray:none;stroke-opacity:1"
             id="path244"
             inkscape:connector-curvature="0" />
        </g>
      </g>
    </g>
    <g
       transform="matrix(0.35277777,0,0,-0.35277777,267.02583,143.0607)"
       id="g246">
      <g
         id="g248"
         clip-path="url(#clipPath252)">
        <path
           d="m 183.246,167.702 h -7.378 v 25.416 h 7.378 z"
           style="fill:#0092c8;fill-opacity:1;fill-rule:nonzero;stroke:none"
           id="path254"
           inkscape:connector-curvature="0" />
      </g>
    </g>
    <g
       transform="matrix(0.35277777,0,0,-0.35277777,267.02583,143.0607)"
       id="g768">
      <g
         id="g770"
         clip-path="url(#clipPath774)">
        <g
           id="g776"
           transform="translate(189.8535,173.9922)">
          <path
             d="m 0,0 c 0,-0.902 0.73,-1.633 1.633,-1.633 h 0.708 c 1.55,0 3.684,0.175 5.586,1.755 1.462,1.228 2.633,3.158 2.633,5.936 0,4.68 -3.277,7.721 -8.219,7.721 H 1.633 C 0.73,13.779 0,13.048 0,12.146 Z m -6.569,15.09 c -1.022,0.747 -0.493,2.367 0.773,2.367 h 7.541 c 2.285,0 5.526,-0.239 8.391,-2.662 2.082,-1.739 3.889,-4.638 3.889,-8.732 0,-4.775 -2.353,-7.334 -3.991,-8.733 C 7.953,-4.442 5.77,-5.296 1.712,-5.296 h -7.586 c -1.258,0 -1.792,1.603 -0.784,2.358 l 3.25,1.432 v 15.287 z"
             style="fill:#ffffff;fill-opacity:1;fill-rule:nonzero;stroke:none"
             id="path778"
             inkscape:connector-curvature="0" />
        </g>
        <g
           id="g780"
           transform="translate(169.0923,186.1382)">
          <path
             d="m 0,0 c 0,0.902 -0.731,1.633 -1.633,1.633 h -0.708 c -4.943,0 -8.219,-3.041 -8.219,-7.721 0,-2.778 1.171,-4.708 2.632,-5.936 1.903,-1.58 4.036,-1.755 5.587,-1.755 h 0.708 c 0.902,0 1.633,0.731 1.633,1.633 z m 3.407,1.635 v -15.287 l 3.251,-1.432 c 1.008,-0.755 0.474,-2.358 -0.785,-2.358 h -7.585 c -4.059,0 -6.242,0.854 -8.323,2.626 -1.637,1.399 -3.991,3.958 -3.991,8.733 0,4.094 1.808,6.993 3.889,8.732 2.866,2.423 6.107,2.662 8.392,2.662 h 7.541 c 1.266,0 1.795,-1.62 0.772,-2.367 z"
             style="fill:#ffffff;fill-opacity:1;fill-rule:nonzero;stroke:none"
             id="path782"
             inkscape:connector-curvature="0" />
        </g>
      </g>
    </g>
  </g>
</svg>
