<?xml version="1.0" encoding="UTF-8"?>
<svg id="Layer_2" data-name="Layer 2" xmlns="http://www.w3.org/2000/svg" xmlns:xlink="http://www.w3.org/1999/xlink" viewBox="0 0 114.42 114.42">
  <defs>
    <style>
      .cls-1 {
        fill: url(#linear-gradient);
      }

      .cls-1, .cls-2, .cls-3, .cls-4, .cls-5, .cls-6 {
        stroke-width: 0px;
      }

      .cls-2 {
        fill: none;
      }

      .cls-3 {
        fill: #fff;
      }

      .cls-4 {
        fill: url(#linear-gradient-2);
      }

      .cls-7 {
        clip-path: url(#clippath);
      }

      .cls-5 {
        fill: url(#radial-gradient);
      }

      .cls-6 {
        fill: #043954;
      }
    </style>
    <radialGradient id="radial-gradient" cx="57.21" cy="57.44" fx="57.21" fy="57.44" r="50.78" gradientUnits="userSpaceOnUse">
      <stop offset=".41" stop-color="#00527c"/>
      <stop offset="1" stop-color="#043954"/>
    </radialGradient>
    <clipPath id="clippath">
      <path id="Circle_10-2" data-name="Circle_10" class="cls-2" d="m107.99,57.44c0-28.05-22.74-50.78-50.78-50.78S6.43,29.39,6.43,57.44s22.74,50.78,50.78,50.78,50.78-22.74,50.78-50.78"/>
    </clipPath>
    <linearGradient id="linear-gradient" x1="57.21" y1="57.45" x2="57.21" y2="108.6" gradientUnits="userSpaceOnUse">
      <stop offset="0" stop-color="#daeff7"/>
      <stop offset=".36" stop-color="#6ebde6"/>
      <stop offset=".65" stop-color="#6ebde6"/>
      <stop offset="1" stop-color="#0883ba"/>
    </linearGradient>
    <linearGradient id="linear-gradient-2" x1="57.21" y1="57.45" x2="57.21" y2="6.28" gradientUnits="userSpaceOnUse">
      <stop offset="0" stop-color="#f7ede2"/>
      <stop offset=".35" stop-color="#fc8f24"/>
      <stop offset=".65" stop-color="#fc8f24"/>
      <stop offset="1" stop-color="#f63"/>
    </linearGradient>
  </defs>
  <g id="art">
    <g>
      <g>
        <path id="Circle_18" class="cls-6" d="m57.21,0C25.66,0,0,25.66,0,57.21s25.66,57.21,57.21,57.21,57.21-25.66,57.21-57.21S88.76,0,57.21,0h0Z"/>
        <circle id="Circle_18-2" data-name="Circle_18" class="cls-3" cx="57.21" cy="57.44" r="54.01"/>
        <path id="Circle_10" class="cls-5" d="m107.99,57.44c0-28.05-22.74-50.78-50.78-50.78S6.43,29.39,6.43,57.44s22.74,50.78,50.78,50.78,50.78-22.74,50.78-50.78"/>
        <g class="cls-7">
          <g>
            <path class="cls-1" d="m64.77,78.55c6.31,9.37,16.57,15.28,27.84,16.03-.66.6-1.33,1.17-1.99,1.74-11.9-1.23-22.5-8.14-28.47-18.53,3.85,10.01,10.67,18.59,19.54,24.65l-1.93.98c-9.25-6.56-16.16-15.88-19.79-26.61,1.77,10.54,5.21,20.7,10.23,30.14l-1.86.44c-4.86-9.66-8.33-19.95-10.26-30.58v31.78h-1.74v-31.78c-1.93,10.64-5.4,20.93-10.26,30.58l-1.86-.47c4.99-9.41,8.46-19.57,10.23-30.11-3.63,10.73-10.57,20.04-19.79,26.61l-1.93-.98c8.87-6.06,15.69-14.64,19.54-24.65-5.97,10.38-16.57,17.26-28.47,18.53-.69-.57-1.33-1.17-1.99-1.77,11.27-.73,21.52-6.66,27.84-16-9.59,9.53-25.09,11.84-37.15,5.71l-1.7-3c11.65,7.86,27.33,5.96,36.77-4.45-14.68,9.09-35.04-2.04-35.1-19.37h2.02c-.13,11.46,9.16,20.82,20.64,20.85,5.62,0,11.05-2.02,15.31-5.71.41-.47.66-1.07.76-1.74v-13.4s12.03,0,12.03,0v13.43c.05.63.34,1.23.75,1.7,4.23,3.69,9.69,5.71,15.31,5.71,11.49,0,20.74-9.39,20.64-20.85h2.02c-.09,17.33-20.43,28.46-35.1,19.37,9.44,10.42,25.09,12.31,36.77,4.48l-1.7,2.97c-12.06,6.12-27.55,3.82-37.15-5.71Z"/>
            <path class="cls-4" d="m64.77,36.33c6.31-9.37,16.57-15.28,27.84-16.03-.66-.6-1.33-1.17-1.99-1.74-11.9,1.23-22.5,8.14-28.47,18.53,3.85-10.01,10.67-18.59,19.54-24.65l-1.93-.98c-9.25,6.56-16.16,15.88-19.79,26.61,1.77-10.54,5.21-20.7,10.23-30.14l-1.86-.44c-4.86,9.66-8.33,19.95-10.26,30.58V6.28h-1.74v31.78c-1.93-10.64-5.4-20.93-10.26-30.58l-1.86.47c4.99,9.41,8.46,19.57,10.23,30.11-3.63-10.73-10.57-20.04-19.79-26.61l-1.93.98c8.87,6.06,15.69,14.64,19.54,24.65-5.97-10.38-16.57-17.26-28.47-18.53-.69.57-1.33,1.17-1.99,1.77,11.27.73,21.52,6.66,27.84,16-9.59-9.53-25.09-11.84-37.15-5.71l-1.7,3c11.65-7.86,27.33-5.96,36.77,4.45-14.68-9.09-35.04,2.05-35.1,19.38h2.02c-.13-11.45,9.16-20.83,20.64-20.86,5.62,0,11.05,2.02,15.31,5.71.41.47.66,1.07.76,1.74v13.42s12.03,0,12.03,0v-13.45c.05-.63.34-1.23.75-1.7,4.23-3.69,9.69-5.71,15.31-5.71,11.49,0,20.74,9.41,20.64,20.86h2.02c-.09-17.33-20.42-28.47-35.1-19.38,9.44-10.42,25.09-12.31,36.77-4.48l-1.7-2.97c-12.06-6.12-27.55-3.82-37.15,5.71Z"/>
          </g>
        </g>
      </g>
      <g>
        <path class="cls-3" d="m47.75,48.46v18.54s4.54,3.4,4.54,3.4c1.41,1.05.66,3.29-1.09,3.29h-10.58c-5.66,0-8.71-1.19-11.61-3.66-2.29-1.95-5.57-5.52-5.57-12.18,0-5.71,2.52-9.76,5.43-12.18,4-3.38,8.52-3.71,11.71-3.71h10.52c1.77,0,2.5,2.26,1.08,3.3l-4.41,3.22Zm-3.52-3.19h-3.81c-8.04,0-13.38,4.95-13.38,12.57,0,4.52,1.9,7.66,4.28,9.66,3.1,2.57,6.57,2.86,9.09,2.86h3.81s0-25.08,0-25.08Z"/>
        <path class="cls-3" d="m62.66,45.18c-1.43-1.04-.69-3.3,1.08-3.3h10.52c3.19,0,7.71.33,11.71,3.71,2.9,2.43,5.43,6.47,5.43,12.18,0,6.66-3.28,10.23-5.57,12.18-2.9,2.47-5.95,3.66-11.61,3.66h-10.58c-1.76,0-2.5-2.24-1.09-3.29l4.54-3.4v-18.54l-4.41-3.22Zm7.93,25.11h3.81c2.52,0,6-.28,9.09-2.86,2.38-2,4.28-5.14,4.28-9.66,0-7.62-5.33-12.57-13.38-12.57h-3.81v25.08Z"/>
      </g>
    </g>
  </g>
</svg>